# xmcd
#
# Track frame offsets: 
#        150
#        14928
#        32497
#        59090
#        77125
#        90668
#        105032
#        117518
#        131965
#        144601
#        157760
#        176340
#        192836
#        205349
#        217873
#        228288
#        240705
#        256292
#        275867
#        294042
#        317640
#
# Disc length: 4478 seconds
#
# Revision: 2
# Processed by: cddbd v1.5.2PL0 Copyright (c) Steve Scherf et al.
# Submitted via: ExactAudioCopyFreeDBPlugin 1.0
#
DISCID=2a117c15
DTITLE=Smokey Robinson - My World (The Definitive Collection)
DYEAR=2005
DGENRE=R&B
TTITLE0=My World (New Song)
TTITLE1=Fallin' (New Song)
TTITLE2=Cruisin'
TTITLE3=Just To See Her Again
TTITLE4=The Tears Of A Clown
TTITLE5=You've Really Got A Hold On Me
TTITLE6=Going To A Go-Go
TTITLE7=Mickey's Monkey
TTITLE8=Shop Around
TTITLE9=The Tracks Of My Tears
TTITLE10=Being With You
TTITLE11=Baby That's Backatcha
TTITLE12=I Second That Emotion
TTITLE13=More Love
TTITLE14=Yester Love
TTITLE15=OOO Baby Baby
TTITLE16=Baby Come Close
TTITLE17=I've Made Love To You A Thousand Times
TTITLE18=Quiet Storm (Single Version)
TTITLE19=Let Me Be The Clock
TTITLE20=One Heartbeat
EXTD=
EXTT0=
EXTT1=
EXTT2=
EXTT3=
EXTT4=
EXTT5=
EXTT6=
EXTT7=
EXTT8=
EXTT9=
EXTT10=
EXTT11=
EXTT12=
EXTT13=
EXTT14=
EXTT15=
EXTT16=
EXTT17=
EXTT18=
EXTT19=
EXTT20=
PLAYORDER=
